<svg width="24" height="24" viewBox="0 0 24 24" fill="none" xmlns="http://www.w3.org/2000/svg">
<path d="M17.0018 7.00037H7.00036C6.17602 7.00025 5.36444 7.20396 4.63787 7.59337C3.9113 7.98278 3.2923 8.5458 2.83596 9.23231C2.37962 9.91882 2.10011 10.7075 2.02232 11.5282C1.94452 12.3488 2.07085 13.176 2.39006 13.936C2.70927 14.6961 3.21146 15.3654 3.85191 15.8844C4.49237 16.4034 5.25121 16.7559 6.06089 16.9107C6.87057 17.0655 7.70596 17.0177 8.49269 16.7715C9.27941 16.5253 9.99306 16.0885 10.5701 15.4998H13.4299C14.0069 16.0884 14.7204 16.5252 15.5071 16.7714C16.2937 17.0176 17.129 17.0655 17.9386 16.9108C18.7482 16.7562 19.507 16.4037 20.1474 15.8849C20.7879 15.366 21.2902 14.6969 21.6095 13.937C21.9289 13.1772 22.0554 12.3501 21.9778 11.5295C21.9003 10.7089 21.621 9.92026 21.1649 9.23368C20.7089 8.5471 20.0902 7.98392 19.3638 7.59428C18.6375 7.20463 17.8261 7.00061 17.0018 7.00037ZM9.75016 12.375C9.75016 12.4744 9.71065 12.5698 9.64033 12.6401C9.57001 12.7104 9.47464 12.75 9.37519 12.75H7.7503V14.3748C7.7503 14.4743 7.7108 14.5697 7.64048 14.64C7.57016 14.7103 7.47478 14.7498 7.37533 14.7498H6.62538C6.52594 14.7498 6.43056 14.7103 6.36024 14.64C6.28992 14.5697 6.25041 14.4743 6.25041 14.3748V12.75H4.62553C4.52608 12.75 4.4307 12.7104 4.36038 12.6401C4.29006 12.5698 4.25055 12.4744 4.25055 12.375V11.625C4.25055 11.5256 4.29006 11.4302 4.36038 11.3599C4.4307 11.2896 4.52608 11.2501 4.62553 11.2501H6.25041V9.62518C6.25041 9.52573 6.28992 9.43035 6.36024 9.36003C6.43056 9.28971 6.52594 9.25021 6.62538 9.25021H7.37533C7.47478 9.25021 7.57016 9.28971 7.64048 9.36003C7.7108 9.43035 7.7503 9.52573 7.7503 9.62518V11.2501H9.37519C9.47464 11.2501 9.57001 11.2896 9.64033 11.3599C9.71065 11.4302 9.75016 11.5256 9.75016 11.625V12.375ZM16.4997 14.7498C16.2525 14.7498 16.0108 14.6765 15.8053 14.5392C15.5997 14.4018 15.4395 14.2066 15.3449 13.9782C15.2503 13.7498 15.2256 13.4985 15.2738 13.2561C15.322 13.0136 15.4411 12.7909 15.6159 12.6161C15.7907 12.4413 16.0134 12.3222 16.2558 12.274C16.4983 12.2258 16.7496 12.2505 16.978 12.3451C17.2064 12.4397 17.4016 12.5999 17.5389 12.8055C17.6763 13.011 17.7496 13.2527 17.7496 13.4999C17.7496 13.8314 17.6179 14.1493 17.3835 14.3837C17.1491 14.6181 16.8312 14.7498 16.4997 14.7498ZM18.4995 11.75C18.2523 11.75 18.0107 11.6767 17.8051 11.5394C17.5996 11.402 17.4394 11.2068 17.3448 10.9784C17.2502 10.75 17.2254 10.4987 17.2736 10.2563C17.3219 10.0138 17.4409 9.7911 17.6157 9.6163C17.7905 9.44149 18.0132 9.32245 18.2557 9.27422C18.4981 9.22599 18.7495 9.25075 18.9779 9.34535C19.2062 9.43995 19.4015 9.60016 19.5388 9.8057C19.6761 10.0112 19.7494 10.2529 19.7494 10.5001C19.7494 10.8316 19.6178 11.1495 19.3834 11.3839C19.149 11.6183 18.831 11.75 18.4995 11.75Z" fill="#1890FF"/>
</svg>
