<svg width="135" height="79" viewBox="0 0 135 79" fill="none" xmlns="http://www.w3.org/2000/svg">
<path fill-rule="evenodd" clip-rule="evenodd" d="M118.344 43.1019C118.344 47.4408 117.212 51.5152 115.227 55.0459H129.768C133.21 55.0459 136 57.8359 136 61.2775C136 64.7192 133.21 67.5091 129.768 67.5091H7.21355C3.77193 67.5091 0.981934 64.7192 0.981934 61.2775C0.981934 57.8359 3.77192 55.0459 7.21354 55.0459H8.42582C7.64652 53.3012 7.21324 51.368 7.21324 49.3336C7.21324 41.5899 13.4907 35.3125 21.2344 35.3125C22.2064 35.3125 23.1553 35.4114 24.0716 35.5997C23.9129 34.3145 23.8312 33.0055 23.8312 31.6773C23.8312 14.1824 38.0136 0 55.5085 0C69.0101 0 80.5388 8.44686 85.0984 20.3443C87.839 19.2792 90.8197 18.6948 93.9369 18.6948C107.417 18.6948 118.344 29.6223 118.344 43.1019ZM34.1222 55.0459H34.0429L34.0659 54.9942L34.1222 55.0459ZM70.6457 71.8182C68.6625 71.8182 67.0548 73.4259 67.0548 75.4091C67.0548 77.3923 68.6625 79 70.6457 79H107.991C109.974 79 111.582 77.3923 111.582 75.4091C111.582 73.4259 109.974 71.8182 107.991 71.8182H70.6457Z" fill="#DCF1F4"/>
</svg>
