<svg width="135" height="79" viewBox="0 0 135 79" fill="none" xmlns="http://www.w3.org/2000/svg">
<path fill-rule="evenodd" clip-rule="evenodd" d="M17.6537 43.0961C17.6537 47.4344 18.7858 51.5083 20.7705 55.0385H6.23077C2.78961 55.0385 0 57.8281 0 61.2693C0 64.7104 2.78961 67.5001 6.23077 67.5001H128.769C132.21 67.5001 135 64.7104 135 61.2693C135 57.8281 132.21 55.0385 128.769 55.0385H127.557C128.336 53.294 128.769 51.3611 128.769 49.3269C128.769 41.5843 122.493 35.3077 114.75 35.3077C113.778 35.3077 112.83 35.4066 111.913 35.5949C112.072 34.3098 112.154 33.001 112.154 31.6731C112.154 14.1805 97.9733 0 80.4807 0C66.981 0 55.4538 8.44572 50.8949 20.3416C48.1546 19.2766 45.1743 18.6923 42.0576 18.6923C28.5797 18.6923 17.6537 29.6183 17.6537 43.0961ZM101.864 55.0385H101.943L101.92 54.9869L101.864 55.0385ZM65.3457 71.8085C67.3287 71.8085 68.9362 73.416 68.9362 75.3989C68.9362 77.3819 67.3287 78.9894 65.3457 78.9894H28.0053C26.0224 78.9894 24.4149 77.3819 24.4149 75.3989C24.4149 73.416 26.0224 71.8085 28.0053 71.8085H65.3457Z" fill="#DCF1F4"/>
</svg>
