<svg width="94" height="55" viewBox="0 0 94 55" fill="none" xmlns="http://www.w3.org/2000/svg">
<path fill-rule="evenodd" clip-rule="evenodd" d="M12.2924 30.0077C12.2924 33.0284 13.0806 35.865 14.4626 38.3231H4.33846C1.9424 38.3231 0 40.2655 0 42.6616C0 45.0576 1.9424 47 4.33846 47H89.6615C92.0576 47 94 45.0576 94 42.6616C94 40.2655 92.0576 38.3231 89.6615 38.3231H88.8176C89.3601 37.1084 89.6618 35.7625 89.6618 34.3462C89.6618 28.955 85.2914 24.5846 79.9002 24.5846C79.2234 24.5846 78.5627 24.6535 77.9247 24.7846C78.0352 23.8899 78.0921 22.9785 78.0921 22.0538C78.0921 9.87384 68.2183 0 56.0383 0C46.6385 0 38.6122 5.88068 35.4378 14.1637C33.5298 13.4222 31.4548 13.0154 29.2847 13.0154C19.9001 13.0154 12.2924 20.6231 12.2924 30.0077ZM70.9275 38.3231H70.9829L70.9669 38.287L70.9275 38.3231ZM45.5 50C46.8807 50 48 51.1193 48 52.5C48 53.8807 46.8807 55 45.5 55H19.5C18.1193 55 17 53.8807 17 52.5C17 51.1193 18.1193 50 19.5 50H45.5Z" fill="#DCF1F4"/>
</svg>
