<svg width="50" height="25" viewBox="0 0 50 25" fill="none" xmlns="http://www.w3.org/2000/svg">
<path fill-rule="evenodd" clip-rule="evenodd" d="M42.3072 20.3846C43.0423 19.0771 43.4615 17.5683 43.4615 15.9615C43.4615 10.9697 39.4149 6.92307 34.4231 6.92307C33.2687 6.92307 32.165 7.13946 31.1501 7.53388C29.4616 3.12802 25.1923 0 20.1924 0C13.7137 0 8.46163 5.25204 8.46163 11.7308C8.46163 12.2226 8.4919 12.7074 8.55067 13.1833C8.21131 13.1136 7.85987 13.0769 7.49987 13.0769C4.63224 13.0769 2.30756 15.4016 2.30756 18.2692C2.30756 19.0226 2.46801 19.7385 2.7566 20.3846H2.30769C1.03319 20.3846 0 21.4178 0 22.6923C0 23.9668 1.03319 25 2.30769 25H47.6923C48.9668 25 50 23.9668 50 22.6923C50 21.4178 48.9668 20.3846 47.6923 20.3846H42.3072ZM12.2431 20.3846H12.2726C12.2656 20.3782 12.2586 20.3718 12.2517 20.3654C12.2488 20.3718 12.246 20.3782 12.2431 20.3846Z" fill="#DCF1F4"/>
</svg>
