<svg width="24" height="24" viewBox="0 0 24 24" fill="none" xmlns="http://www.w3.org/2000/svg">
<path d="M11.999 2.00098H9.49829V4.50171H11.999V2.00098ZM2 4.50054V7.00127H4.50073V4.50054H2ZM7.00147 2.00098H4.50073V4.50171H7.00147V2.00098ZM9.5022 12V14.5007H12.0029V12H9.5022ZM2 9.50005V12.0008H4.50073V9.50005H2ZM16.9985 2.00098H14.4978V4.50171H16.9985V2.00098ZM22 2.00098H19.4993V4.50171H22V2.00098ZM7.00147 12H4.50073V14.5007H7.00147V12ZM21.998 19.4983V16.9976H19.4973V19.4983H21.998ZM21.998 14.4968V11.9961H19.4973V14.4968H21.998ZM16.9985 21.999H19.4993V19.4983H16.9985V21.999ZM22 9.50005V6.99932H19.4993V9.50005H22ZM7.00147 21.999H9.5022V19.4983H7.00147V21.999ZM2 21.999H4.50073V19.4983H2V21.999ZM11.999 21.999H14.4998V19.4983H11.999V21.999ZM2 14.4996V17.0003H4.50073V14.4996H2ZM14.499 7.00049V4.49976H11.9982V7.00049H14.499ZM11.9982 12.002H14.499V9.50122H11.9982V12.002ZM9.49751 17.0034V19.5041H11.9982V17.0034H9.49751ZM14.499 14.5027H16.9997V12.002H14.499V14.5027ZM14.499 9.50317H16.9997V7.00244H14.499V9.50317ZM14.499 17.0026V19.5034H16.9997V17.0026H14.499ZM4.50073 16.9995V19.5002H7.00147V16.9995H4.50073ZM9.5022 7.00049V4.49976H7.00147V7.00049H9.5022ZM17.0013 16.9995H19.502V14.4988H17.0013V16.9995ZM11.9998 9.50005V6.99932H9.49907V9.50005H11.9998ZM17.0013 4.50054V7.00127H19.502V4.50054H17.0013ZM11.9998 14.4996V17.0003H14.5005V14.4996H11.9998ZM9.49907 9.50005H7.00147V12.0008H9.5022L9.49907 9.50005ZM16.9981 12.0008H19.4989V9.50005H16.9981V12.0008ZM7.00147 7.00049H4.50073V9.50122H7.00147V7.00049ZM7.00147 14.4996V17.0003H9.5022V14.4996H7.00147Z" fill="black"/>
</svg>
