<svg width="24" height="24" viewBox="0 0 24 24" fill="none" xmlns="http://www.w3.org/2000/svg">
<path d="M21.8412 18.4593L12.8412 4.45943C12.6572 4.17318 12.3403 4.00006 12 4.00006C11.6597 4.00006 11.3428 4.17318 11.1588 4.45943L2.15885 18.4593C2.06172 18.6104 2.00708 18.7848 2.00064 18.9643C1.99421 19.1438 2.03623 19.3217 2.12228 19.4793C2.20838 19.6369 2.33532 19.7684 2.48978 19.86C2.64424 19.9516 2.82051 19.9999 3.00009 19.9999H20.9999C21.3658 19.9999 21.7024 19.8002 21.8777 19.479C21.9638 19.3214 22.0058 19.1435 21.9994 18.9641C21.9929 18.7847 21.9383 18.6103 21.8412 18.4593ZM12 6.84941L14.6684 11H12L10 13L8.81066 11.8106L12 6.84941Z" fill="black"/>
</svg>
