<svg width="24" height="24" viewBox="0 0 24 24" fill="none" xmlns="http://www.w3.org/2000/svg">
<path d="M12.0002 10.7501C8.89827 10.7501 4.50027 15.5454 4.50027 18.5723C4.50027 19.9356 5.54753 20.75 7.30259 20.75C9.21038 20.75 10.4701 19.7704 12.0002 19.7704C13.5435 19.7704 14.8068 20.75 16.6978 20.75C18.4529 20.75 19.5001 19.9356 19.5001 18.5723C19.5001 15.5454 15.1021 10.7501 12.0002 10.7501ZM6.24713 10.2576C5.84088 8.90406 4.58934 8.02751 3.45185 8.29938C2.31436 8.57125 1.72179 9.88882 2.12803 11.2423C2.53428 12.5958 3.78583 13.4724 4.92332 13.2005C6.0608 12.9286 6.65338 11.6111 6.24713 10.2576ZM9.55647 9.44585C10.7651 9.12789 11.3697 7.49509 10.9072 5.79902C10.4447 4.10294 9.09007 2.98615 7.88149 3.30412C6.67291 3.62209 6.06823 5.25488 6.53072 6.95096C6.99322 8.64703 8.34828 9.76421 9.55647 9.44585ZM20.5482 8.29977C19.4107 8.0279 18.1595 8.90445 17.7529 10.258C17.3466 11.6115 17.9392 12.929 19.0767 13.2009C20.2142 13.4728 21.4653 12.5962 21.872 11.2427C22.2782 9.88921 21.6856 8.57164 20.5482 8.29977ZM14.4439 9.44585C15.6525 9.76382 17.0072 8.64703 17.4697 6.95096C17.9322 5.25488 17.3275 3.62248 16.1189 3.30412C14.9103 2.98576 13.5556 4.10294 13.0932 5.79902C12.6307 7.49509 13.2353 9.12789 14.4439 9.44585Z" fill="black"/>
</svg>
