<svg width="24" height="24" viewBox="0 0 24 24" fill="none" xmlns="http://www.w3.org/2000/svg">
<path d="M20.0362 13.1337C18.5945 13.1337 17.9702 14.2307 17.1869 14.2307C15.1045 14.2307 17 8.11114 17 8.11114C17 8.11114 10.1844 10.8889 10.1844 7.99667C10.1844 6.75267 11.4444 6.39076 11.4444 5.01108C11.4444 3.77837 10.4682 3.11115 9.31038 3.11115C8.10712 3.11115 7.00601 3.76708 7.00601 5.0676C7.00601 6.50385 8.10708 7.12583 8.10708 7.90614C8.10712 10.3236 2 8.90135 2 8.90135V20.4721C2 20.4721 8.2026 21.8973 8.2026 19.4769C8.2026 18.6966 6.81372 18.0843 6.81372 16.648C6.81372 15.3475 7.82934 14.6916 9.02125 14.6916C10.1905 14.6916 11.1667 15.3588 11.1667 16.5915C11.1667 17.9711 9.90667 18.3331 9.90667 19.577C9.90667 21.6883 14.4093 20.4704 16.1994 20.4704C16.1994 20.4704 14.9936 16.3003 17.0961 16.3003C18.3448 16.3003 18.7081 17.5556 20.093 17.5556C21.3303 17.5556 22 16.583 22 15.4182C22 14.2307 21.3416 13.1337 20.0362 13.1337Z" fill="black"/>
</svg>
