<svg width="24" height="24" viewBox="0 0 24 24" fill="none" xmlns="http://www.w3.org/2000/svg">
<path d="M12 22C17.5231 22 22 17.5231 22 12C22 6.47687 17.5231 2 12 2C6.47687 2 2 6.47687 2 12C2 17.5231 6.47687 22 12 22ZM12 10.5L14.08 7.60625C14.2988 7.09563 14.8888 6.86125 15.3944 7.08063C15.9019 7.29813 16.1369 7.88625 15.92 8.39313L13.8344 11.2987C14.2519 11.7463 14.5188 12.3369 14.5188 12.9963C14.5188 14.3769 13.3994 15.4963 12.0188 15.4963C10.6381 15.4963 9.51875 14.3769 9.51875 12.9963C9.51875 11.6225 10.6287 10.5106 12 10.5Z" fill="black"/>
<circle cx="12" cy="12" r="8.75" stroke="white" stroke-width="0.5"/>
<path d="M11.5 4.5V7M19.5 12H17.5M12 19.5V16.5M4.5 12H6.5" stroke="white" stroke-width="0.5"/>
<circle cx="12" cy="13" r="1" fill="black"/>
</svg>
