<svg width="24" height="24" viewBox="0 0 24 24" fill="none" xmlns="http://www.w3.org/2000/svg">
<path d="M3 11H4V17H3C2.86863 17.0002 2.73853 16.9744 2.61713 16.9242C2.49573 16.874 2.38543 16.8003 2.29254 16.7075C2.19965 16.6146 2.126 16.5043 2.0758 16.3829C2.0256 16.2615 1.99984 16.1314 2 16V12C1.99984 11.8686 2.0256 11.7385 2.0758 11.6171C2.126 11.4957 2.19965 11.3854 2.29254 11.2925C2.38543 11.1997 2.49573 11.126 2.61713 11.0758C2.73853 11.0256 2.86863 10.9998 3 11ZM19 9.5V18C18.9995 18.5303 18.7886 19.0387 18.4136 19.4136C18.0387 19.7886 17.5303 19.9995 17 20H7C6.46973 19.9995 5.96132 19.7886 5.58636 19.4136C5.21141 19.0387 5.00052 18.5303 5 18V9.5C4.99989 9.17166 5.06449 8.84653 5.19008 8.54316C5.31568 8.2398 5.49983 7.96416 5.732 7.73199C5.96416 7.49983 6.2398 7.31568 6.54317 7.19008C6.84653 7.06448 7.17167 6.99989 7.5 7H11V5C11 4.73478 11.1054 4.48043 11.2929 4.29289C11.4804 4.10536 11.7348 4 12 4C12.2652 4 12.5196 4.10536 12.7071 4.29289C12.8946 4.48043 13 4.73478 13 5V7H16.5C16.8283 6.99989 17.1535 7.06448 17.4568 7.19008C17.7602 7.31568 18.0358 7.49983 18.268 7.73199C18.5002 7.96416 18.6843 8.2398 18.8099 8.54316C18.9355 8.84653 19.0001 9.17166 19 9.5ZM10.25 12C10.25 11.7528 10.1767 11.5111 10.0393 11.3055C9.90199 11.1 9.70676 10.9398 9.47835 10.8451C9.24995 10.7505 8.99861 10.7258 8.75614 10.774C8.51366 10.8222 8.29093 10.9413 8.11612 11.1161C7.9413 11.2909 7.82225 11.5137 7.77402 11.7561C7.72579 11.9986 7.75054 12.2499 7.84515 12.4784C7.93976 12.7068 8.09998 12.902 8.30554 13.0393C8.5111 13.1767 8.75277 13.25 9 13.25C9.16416 13.25 9.32671 13.2177 9.47837 13.1549C9.63003 13.0921 9.76784 13 9.88391 12.8839C9.99999 12.7678 10.0921 12.63 10.1549 12.4784C10.2177 12.3267 10.25 12.1642 10.25 12ZM10 16H8V17H10V16ZM13 16H11V17H13V16ZM16.25 12C16.25 11.7528 16.1767 11.5111 16.0393 11.3055C15.902 11.1 15.7068 10.9398 15.4784 10.8451C15.2499 10.7505 14.9986 10.7258 14.7561 10.774C14.5137 10.8222 14.2909 10.9413 14.1161 11.1161C13.9413 11.2909 13.8222 11.5137 13.774 11.7561C13.7258 11.9986 13.7505 12.2499 13.8452 12.4784C13.9398 12.7068 14.1 12.902 14.3055 13.0393C14.5111 13.1767 14.7528 13.25 15 13.25C15.1642 13.25 15.3267 13.2177 15.4784 13.1549C15.63 13.0921 15.7678 13 15.8839 12.8839C16 12.7678 16.0921 12.63 16.1549 12.4784C16.2177 12.3267 16.25 12.1642 16.25 12ZM16 16H14V17H16V16ZM22 12V16C22.0002 16.1314 21.9744 16.2615 21.9242 16.3829C21.874 16.5043 21.8003 16.6146 21.7075 16.7075C21.6146 16.8003 21.5043 16.874 21.3829 16.9242C21.2615 16.9744 21.1314 17.0002 21 17H20V11H21C21.1314 10.9998 21.2615 11.0256 21.3829 11.0758C21.5043 11.126 21.6146 11.1997 21.7075 11.2925C21.8003 11.3854 21.874 11.4957 21.9242 11.6171C21.9744 11.7385 22.0002 11.8686 22 12Z" fill="black"/>
</svg>
