<svg width="24" height="24" viewBox="0 0 24 24" fill="none" xmlns="http://www.w3.org/2000/svg">
<path d="M21.7313 2.74585C21.6848 2.52979 21.4712 2.31616 21.2544 2.26978C19.9967 2 19.012 2 18.0315 2C13.999 2 11.5808 4.15637 9.77548 7H5.7046C5.06602 7.00061 4.31567 7.46387 4.02934 8.03455L2.09827 11.8944C2.03859 12.026 2.00521 12.1681 2 12.3125C2.00009 12.5612 2.09892 12.7996 2.27477 12.9754C2.45061 13.1512 2.68907 13.25 2.93773 13.25H6.99282L6.11491 14.1277C5.67095 14.5715 5.60725 15.3878 6.11491 15.8953L8.10335 17.8838C8.53914 18.3208 9.35945 18.3977 9.872 17.8838L10.7499 17.0061V21.0625C10.75 21.3112 10.8488 21.5496 11.0247 21.7254C11.2005 21.9012 11.439 22 11.6876 22C11.8321 21.9947 11.9741 21.9613 12.1059 21.9017L15.9625 19.9724C16.5339 19.6874 16.9979 18.9373 16.9979 18.2982V14.2186C19.8338 12.4095 21.9993 9.98401 21.9993 5.97278C22.0029 4.98828 22.0029 4.00378 21.7313 2.74585ZM17.0016 8.5625C16.6926 8.56243 16.3905 8.47072 16.1336 8.29899C15.8767 8.12725 15.6765 7.8832 15.5583 7.59768C15.4401 7.31217 15.4092 6.99801 15.4695 6.69494C15.5299 6.39187 15.6787 6.11349 15.8972 5.89501C16.1158 5.67653 16.3942 5.52775 16.6973 5.4675C17.0003 5.40724 17.3145 5.4382 17.6 5.55647C17.8855 5.67475 18.1295 5.87502 18.3012 6.13196C18.4728 6.3889 18.5645 6.69098 18.5645 7C18.5642 7.41439 18.3995 7.81174 18.1064 8.10472C17.8134 8.39771 17.416 8.56236 17.0016 8.5625Z" fill="black"/>
</svg>
