<svg width="123" height="87" viewBox="0 0 123 87" fill="none" xmlns="http://www.w3.org/2000/svg">
<path d="M26.2167 20.105L26.0487 19.3421L105.491 1.8483C106.878 1.54289 108.25 2.41959 108.556 3.80664L120.876 59.7565C121.181 61.1433 120.305 62.5154 118.918 62.8208L39.4753 80.3146L39.3073 79.5517C38.9747 78.0412 37.4823 77.0871 35.9714 77.4198C34.4609 77.7524 33.5068 79.2449 33.8395 80.7557L34.0075 81.5187L17.5086 85.1519C16.1217 85.4573 14.7496 84.5804 14.4442 83.1935L11.0549 67.8018C10.9303 67.236 11.0966 66.6668 11.4746 66.2996C14.7239 63.1447 16.3248 58.4342 15.2776 53.6786C14.2304 48.9228 10.7989 45.3206 6.52502 43.8224C6.02764 43.6479 5.63768 43.2014 5.51304 42.6354L2.12367 27.2437C1.81824 25.8567 2.6951 24.4847 4.08201 24.1793L20.5809 20.5461L20.7489 21.3091C21.0816 22.8196 22.574 23.7737 24.0849 23.441C25.5954 23.1083 26.5494 21.6159 26.2167 20.105ZM35.6354 75.8939C37.1459 75.5613 38.1 74.0689 37.7673 72.558L36.9972 69.0612C36.6646 67.5507 35.1722 66.5966 33.6613 66.9293C32.1508 67.2619 31.1967 68.7544 31.5294 70.2652L32.2995 73.7621C32.6321 75.2726 34.1245 76.2266 35.6354 75.8939ZM33.3253 65.4032C34.8357 65.0706 35.7898 63.5782 35.4571 62.0673L34.6871 58.5705C34.3545 57.06 32.862 56.1059 31.3512 56.4386C29.8407 56.7712 28.8866 58.2636 29.2193 59.7745L29.9893 63.2713C30.322 64.7818 31.8144 65.7359 33.3253 65.4032ZM31.0152 54.9127C32.5257 54.5801 33.4797 53.0876 33.147 51.5768L32.377 48.0799C32.0444 46.5694 30.552 45.6154 29.0411 45.9481C27.5306 46.2807 26.5765 47.7731 26.9092 49.284L27.6792 52.7808C28.0119 54.2913 29.5043 55.2454 31.0152 54.9127ZM28.7051 44.4222C30.2156 44.0896 31.1697 42.5971 30.837 41.0863L30.0669 37.5894C29.7343 36.0789 28.2419 35.1249 26.731 35.4576C25.2205 35.7902 24.2664 37.2826 24.5991 38.7935L25.3692 42.2903C25.7018 43.8008 27.1942 44.7549 28.7051 44.4222ZM26.3949 33.9315C27.9054 33.5988 28.8595 32.1064 28.5268 30.5955L27.7568 27.0987C27.4242 25.5882 25.9317 24.6341 24.4209 24.9668C22.9104 25.2995 21.9563 26.7919 22.289 28.3028L23.059 31.7996C23.3916 33.3101 24.8841 34.2642 26.3949 33.9315Z" fill="#F2F2F2" stroke="#E9E9E9" stroke-width="2.01818"/>
<path d="M113.419 11.2742H31.0645V13.0645C31.0645 14.0542 30.2637 14.8548 29.2742 14.8548C28.2846 14.8548 27.4839 14.0539 27.4839 13.0645V11.2742H9.58062C7.60321 11.2742 6 12.8772 6 14.8548V30.6153C6 31.5178 6.44378 32.3754 7.21124 32.8502C10.7795 35.0572 13.1612 38.9958 13.1612 43.4999C13.1612 48.0039 10.7795 51.9427 7.21124 54.1496C6.44378 54.6244 6 55.4823 6 56.3846V72.1451C6 74.1225 7.60321 75.7257 9.58062 75.7257H27.4839V73.9354C27.4839 72.9457 28.2848 72.1451 29.2742 72.1451C30.2639 72.1451 31.0645 72.9459 31.0645 73.9354V75.7257H113.419C115.397 75.7257 117 74.1225 117 72.1451V14.8548C117 12.8772 115.397 11.2742 113.419 11.2742ZM31.0645 66.7742C31.0645 67.7638 30.2637 68.5645 29.2742 68.5645C28.2846 68.5645 27.4839 67.7636 27.4839 66.7742V63.1935C27.4839 62.2039 28.2848 61.4032 29.2742 61.4032C30.2639 61.4032 31.0645 62.2041 31.0645 63.1935V66.7742ZM31.0645 56.0321C31.0645 57.0218 30.2637 57.8224 29.2742 57.8224C28.2846 57.8224 27.4839 57.0216 27.4839 56.0321V52.4515C27.4839 51.4618 28.2848 50.6612 29.2742 50.6612C30.2639 50.6612 31.0645 51.462 31.0645 52.4515V56.0321ZM31.0645 45.2902C31.0645 46.2799 30.2637 47.0806 29.2742 47.0806C28.2846 47.0806 27.4839 46.2797 27.4839 45.2902V41.7096C27.4839 40.72 28.2848 39.9193 29.2742 39.9193C30.2639 39.9193 31.0645 40.7202 31.0645 41.7096V45.2902ZM31.0645 34.5484C31.0645 35.5381 30.2637 36.3387 29.2742 36.3387C28.2846 36.3387 27.4839 35.5379 27.4839 34.5484V30.9678C27.4839 29.9781 28.2848 29.1775 29.2742 29.1775C30.2639 29.1775 31.0645 29.9783 31.0645 30.9678V34.5484ZM31.0645 23.8063C31.0645 24.796 30.2637 25.5966 29.2742 25.5966C28.2846 25.5966 27.4839 24.7958 27.4839 23.8063V20.2257C27.4839 19.236 28.2848 18.4354 29.2742 18.4354C30.2639 18.4354 31.0645 19.2363 31.0645 20.2257V23.8063Z" fill="#FFC350"/>
<path d="M111.629 72.1452H36.4353C35.4465 72.1452 34.645 71.3437 34.645 70.3549V16.6452C34.645 15.6564 35.4465 14.8549 36.4353 14.8549H111.629C112.618 14.8549 113.419 15.6564 113.419 16.6452V70.3549C113.419 71.3437 112.618 72.1452 111.629 72.1452Z" fill="#FFD164"/>
<path d="M111.629 72.1452H36.4353C35.4465 72.1452 34.645 71.3437 34.645 70.3549V16.6452C34.645 15.6564 35.4465 14.8549 36.4353 14.8549H111.629C112.618 14.8549 113.419 15.6564 113.419 16.6452V70.3549C113.419 71.3437 112.618 72.1452 111.629 72.1452Z" fill="#FFD164"/>
</svg>
